<?xml version="1.0" standalone="no"?>
<!DOCTYPE svg PUBLIC "-//W3C//DTD SVG 20010904//EN"
 "http://www.w3.org/TR/2001/REC-SVG-20010904/DTD/svg10.dtd">
<svg version="1.0" xmlns="http://www.w3.org/2000/svg"
 width="981.000000pt" height="982.000000pt" viewBox="0 0 981.000000 982.000000"
 preserveAspectRatio="xMidYMid meet">

<g transform="translate(0.000000,982.000000) scale(0.100000,-0.100000)"
fill="#000000" stroke="none">
<path d="M4542 9800 c-119 -25 -300 -167 -370 -291 -53 -93 -62 -149 -73 -434
-14 -372 -21 -443 -55 -505 -15 -28 -51 -76 -80 -108 -48 -54 -66 -65 -211
-130 -208 -94 -459 -197 -540 -222 -81 -25 -237 -28 -304 -5 -64 22 -134 78
-346 278 -202 190 -259 237 -338 272 -68 30 -111 37 -240 36 -209 0 -292 -46
-555 -310 -168 -168 -243 -261 -281 -346 -27 -60 -39 -195 -29 -308 15 -156
54 -217 326 -505 258 -274 279 -312 272 -485 -5 -121 -19 -165 -148 -467 -142
-332 -164 -373 -228 -430 -31 -28 -84 -64 -117 -80 -69 -34 -88 -36 -471 -50
-144 -5 -285 -15 -315 -21 -125 -26 -269 -132 -354 -258 -79 -120 -79 -115
-83 -479 -2 -191 1 -349 7 -388 26 -169 216 -375 396 -430 34 -10 128 -18 290
-25 430 -17 473 -22 541 -58 110 -58 152 -103 210 -226 66 -139 193 -437 236
-552 29 -81 32 -98 32 -213 1 -118 -1 -128 -27 -177 -33 -63 -95 -136 -291
-343 -81 -85 -170 -188 -197 -228 -69 -104 -84 -159 -83 -317 1 -212 34 -273
283 -528 176 -180 274 -263 356 -302 125 -59 350 -58 478 3 76 35 141 87 317
252 200 187 287 260 338 282 65 29 197 35 282 14 82 -21 456 -170 620 -248
141 -66 192 -112 249 -217 39 -74 46 -132 60 -511 8 -219 14 -276 30 -331 46
-149 179 -292 339 -367 l57 -27 375 0 375 0 57 27 c162 76 292 217 339 367 16
54 22 112 30 326 14 387 21 441 61 517 55 105 114 155 260 221 186 83 428 183
543 224 118 41 213 47 310 19 82 -24 107 -44 394 -314 178 -167 255 -224 337
-253 72 -25 210 -34 303 -20 145 23 221 72 439 285 175 172 256 269 296 356
34 75 49 204 37 312 -20 173 -50 218 -363 551 -93 98 -179 197 -193 220 -29
51 -55 154 -55 225 0 62 28 145 135 408 99 240 184 420 219 461 38 46 139 110
200 128 36 11 133 18 331 26 154 5 315 14 359 19 181 23 347 148 443 338 l38
75 0 371 c0 418 2 402 -80 526 -86 129 -228 233 -355 259 -30 7 -167 16 -305
21 -399 15 -412 16 -480 50 -33 16 -86 52 -117 80 -62 55 -80 87 -195 355
-163 376 -183 439 -183 569 0 152 31 203 287 472 176 185 238 262 275 341 36
77 50 194 38 324 -12 127 -50 201 -173 339 -182 204 -368 368 -473 417 -100
46 -349 48 -449 4 -76 -33 -160 -99 -320 -251 -178 -168 -298 -271 -342 -294
-18 -9 -68 -21 -110 -26 -127 -16 -199 3 -543 145 -308 127 -380 165 -439 232
-105 118 -114 157 -130 603 -11 290 -20 346 -73 439 -52 92 -170 201 -273 252
l-88 44 -341 2 c-188 1 -360 -2 -384 -7z m672 -311 c49 -17 128 -88 151 -135
13 -29 19 -83 26 -258 18 -429 25 -516 49 -579 42 -112 183 -294 288 -370 69
-51 433 -204 754 -318 167 -59 243 -68 376 -45 121 21 236 66 313 122 33 25
146 126 250 224 236 225 277 253 370 258 112 7 150 -17 365 -232 200 -200 234
-250 234 -339 0 -74 -44 -146 -178 -291 -327 -354 -349 -381 -390 -486 -42
-106 -56 -181 -55 -295 0 -104 2 -117 43 -230 72 -203 218 -564 275 -681 49
-101 61 -118 143 -195 49 -46 127 -106 172 -133 132 -78 167 -86 455 -96 395
-15 477 -25 540 -66 31 -20 71 -82 84 -130 22 -76 32 -297 21 -441 -12 -162
-20 -196 -60 -251 -61 -85 -119 -98 -515 -112 -316 -12 -364 -18 -451 -59
-149 -70 -317 -217 -372 -327 -88 -174 -314 -761 -332 -864 -14 -77 -6 -182
21 -289 40 -156 80 -215 301 -450 271 -287 307 -341 293 -446 -9 -77 -60 -149
-224 -315 -190 -192 -291 -252 -395 -234 -84 13 -104 29 -412 325 -154 147
-240 205 -369 249 -86 28 -117 34 -221 38 l-121 4 -139 -47 c-166 -57 -553
-211 -679 -270 -101 -47 -170 -104 -255 -210 -65 -83 -135 -212 -150 -279 -6
-26 -15 -174 -20 -328 -16 -422 -29 -482 -122 -544 -69 -46 -149 -59 -378 -59
-229 0 -309 13 -378 59 -92 61 -106 122 -122 544 -10 271 -18 342 -47 411 -28
68 -122 197 -202 279 -67 68 -95 88 -173 125 -119 57 -537 223 -694 276 -109
37 -130 41 -221 41 -74 0 -126 -7 -198 -25 -158 -40 -231 -89 -465 -310 -272
-257 -327 -293 -429 -281 -68 8 -118 39 -252 159 -192 171 -295 304 -306 395
-11 96 31 165 216 357 165 169 242 257 287 325 82 123 133 340 115 480 -11 78
-63 231 -178 520 -139 349 -171 410 -267 505 -88 87 -199 163 -298 203 -54 21
-85 25 -252 33 -344 16 -520 28 -557 39 -92 26 -151 100 -170 215 -17 104 -15
434 4 522 16 75 53 142 93 168 50 32 139 46 364 56 351 15 458 25 522 49 86
32 199 111 294 204 74 73 90 95 135 191 59 126 219 529 274 690 34 100 37 120
37 215 -1 170 -52 327 -148 452 -27 34 -115 132 -197 217 -230 241 -277 309
-277 403 0 85 38 139 239 339 210 209 249 234 360 227 93 -5 133 -33 369 -257
104 -98 217 -199 251 -224 77 -57 192 -102 313 -123 174 -30 247 -12 711 172
327 131 392 163 471 235 128 117 234 282 256 397 5 29 15 180 21 335 12 315
26 421 62 476 32 47 107 88 188 100 92 14 514 7 563 -10z"/>
<path d="M4620 7099 c-154 -16 -364 -69 -524 -134 -686 -276 -1159 -816 -1353
-1545 l-28 -105 0 -405 c0 -393 1 -408 24 -500 105 -419 327 -803 634 -1097
277 -264 618 -455 991 -554 143 -38 383 -53 681 -44 255 8 334 21 529 86 482
160 895 475 1168 887 274 416 368 768 355 1328 -4 197 -9 245 -31 343 -133
594 -471 1080 -983 1415 -249 163 -614 296 -895 326 -113 12 -445 11 -568 -1z
m643 -323 c110 -18 179 -37 312 -89 532 -205 949 -642 1139 -1195 67 -194 71
-229 70 -597 l0 -330 -31 -115 c-172 -635 -638 -1136 -1258 -1353 -199 -69
-223 -72 -600 -72 -318 0 -346 2 -427 22 -370 94 -742 319 -990 598 -210 237
-392 592 -449 875 -19 91 -19 691 0 775 43 198 162 474 278 650 201 303 463
531 786 685 180 85 371 145 527 164 82 10 548 -3 643 -18z"/>
</g>
</svg>
